# xmcd
#
# Track frame offsets:
# 150
# 18865
# 38138
# 62576
# 82043
# 104441
# 120846
# 137319
# 161345
# 183653
# 205814
# 227993
# 247454
# 268676
# 290543
# 309213
#
# Disc length: 4379 seconds
#
# Revision: 0
# Processed by: cddbd v1.4PL0 Copyright (c) Steve Scherf et al.
# Submitted via: Audion 3.0.2 (http://www.panic.com/audion/)
#
DISCID=d9111910
DTITLE=Zhang Zhi Cheng - Zhang's Second Album
DYEAR=1900
DGENRE=
TTITLE0=track1
TTITLE1=track2
TTITLE2=track3
TTITLE3=track4
TTITLE4=track5
TTITLE5=track6
TTITLE6=track7
TTITLE7=track8
TTITLE8=track9
TTITLE9=track10
TTITLE10=track11
TTITLE11=track12
TTITLE12=track13
TTITLE13=track14
TTITLE14=track15
TTITLE15=strack16
EXTD=
EXTT0=
EXTT1=
EXTT2=
EXTT3=
EXTT4=
EXTT5=
EXTT6=
EXTT7=
EXTT8=
EXTT9=
EXTT10=
EXTT11=
EXTT12=
EXTT13=
EXTT14=
EXTT15=
PLAYORDER=
